<?xml version="1.0" standalone="no"?>
<!DOCTYPE svg PUBLIC "-//W3C//DTD SVG 20010904//EN"
 "http://www.w3.org/TR/2001/REC-SVG-20010904/DTD/svg10.dtd">
<svg version="1.0" xmlns="http://www.w3.org/2000/svg"
 width="512.000000pt" height="512.000000pt" viewBox="0 0 512.000000 512.000000"
 preserveAspectRatio="xMidYMid meet">
<metadata>
Created by potrace 1.11, written by Peter Selinger 2001-2013
</metadata>
<g transform="translate(0.000000,512.000000) scale(0.100000,-0.100000)"
fill="#000000" stroke="none">
<path d="M1688 3995 c-2 -2 -31 -6 -66 -9 -229 -24 -434 -195 -512 -426 -27
-80 -34 -237 -15 -325 58 -267 320 -483 589 -485 l59 0 -8 33 c-14 62 -14 241
0 312 35 179 134 357 255 461 14 12 39 34 55 49 17 14 63 44 102 66 64 36 72
43 63 60 -20 36 -116 127 -173 163 -49 32 -181 90 -197 87 -3 -1 -18 1 -35 4
-44 7 -114 13 -117 10z"/>
<path d="M3287 3983 c-144 -30 -273 -110 -365 -228 -12 -15 -22 -31 -22 -35 0
-4 21 -18 47 -31 66 -34 178 -124 240 -195 139 -156 215 -373 206 -588 -1 -43
-7 -95 -13 -114 -5 -20 -8 -37 -6 -39 9 -9 99 -3 164 11 234 49 422 233 476
464 18 78 18 211 1 287 -8 33 -33 98 -56 145 -121 245 -402 380 -672 323z"/>
<path d="M2423 3555 c-35 -7 -96 -30 -135 -49 -379 -186 -467 -680 -176 -987
276 -291 758 -243 973 96 99 157 124 359 65 531 -104 301 -418 478 -727 409z"/>
<path d="M1183 2626 c-80 -32 -164 -84 -218 -133 -40 -37 -135 -147 -135 -157
0 -4 -9 -20 -19 -35 -23 -31 -59 -132 -76 -211 -7 -33 -13 -156 -14 -296 l-2
-241 321 0 c227 0 320 3 321 11 4 49 10 99 20 143 6 29 10 54 9 55 -1 2 10 34
24 71 35 92 93 202 127 238 15 17 28 33 27 36 0 3 30 37 68 75 70 72 207 170
263 189 36 13 39 28 10 55 -12 10 -37 42 -55 70 -33 49 -36 51 -67 45 -36 -8
-117 -7 -198 3 -64 8 -222 60 -258 85 -44 31 -66 30 -148 -3z"/>
<path d="M3779 2623 c-147 -71 -322 -103 -442 -82 -36 6 -40 4 -61 -30 -13
-20 -38 -53 -55 -75 -17 -21 -31 -42 -31 -45 0 -3 34 -23 75 -44 41 -22 75
-43 75 -48 0 -5 7 -9 15 -9 13 0 181 -159 218 -208 17 -23 30 -43 82 -137 47
-84 84 -209 100 -344 3 -25 7 -46 9 -48 3 -3 247 -5 554 -3 l83 0 -4 263 c-3
144 -7 271 -10 282 -3 11 -17 53 -31 94 -14 40 -23 78 -19 84 3 5 1 7 -4 4 -6
-4 -21 12 -33 36 -42 80 -131 177 -219 236 -71 48 -88 57 -165 86 l-64 24 -73
-36z"/>
<path d="M2047 2200 c-218 -91 -364 -244 -436 -457 -30 -90 -35 -143 -36 -393
l0 -225 985 0 985 0 0 225 c-1 124 -4 250 -8 280 -9 70 -44 171 -79 233 -16
26 -28 50 -28 52 0 17 -129 152 -180 190 -55 40 -156 92 -214 110 -39 11 -45
10 -108 -22 -107 -53 -228 -84 -338 -86 -166 -3 -267 20 -420 98 -27 14 -51
25 -52 24 -2 0 -34 -13 -71 -29z"/>
</g>
</svg>
